<?xml version="1.0" encoding="UTF-8" standalone="no"?>
<!-- Created with Inkscape (http://www.inkscape.org/) -->

<svg
   viewBox="0 0 162.56775 41.373276"
   version="1.1"
   id="svg1"
   inkscape:version="1.3.2 (091e20ef0f, 2023-11-25, custom)"
   sodipodi:docname="logo.svg"
   xmlns:inkscape="http://www.inkscape.org/namespaces/inkscape"
   xmlns:sodipodi="http://sodipodi.sourceforge.net/DTD/sodipodi-0.dtd"
   xmlns="http://www.w3.org/2000/svg"
   xmlns:svg="http://www.w3.org/2000/svg">
  <sodipodi:namedview
     id="namedview1"
     pagecolor="#ffffff"
     bordercolor="#000000"
     borderopacity="0.25"
     inkscape:showpageshadow="2"
     inkscape:pageopacity="0.0"
     inkscape:pagecheckerboard="0"
     inkscape:deskcolor="#d1d1d1"
     inkscape:document-units="mm"
     inkscape:zoom="1.0232247"
     inkscape:cx="389.94368"
     inkscape:cy="234.06394"
     inkscape:window-width="1920"
     inkscape:window-height="1043"
     inkscape:window-x="0"
     inkscape:window-y="0"
     inkscape:window-maximized="1"
     inkscape:current-layer="layer1" />
  <defs
     id="defs1" />
  <g
     inkscape:label="Layer 1"
     inkscape:groupmode="layer"
     id="layer1"
     transform="translate(-15.160834,-24.2275)">
    <path
       d="m 31.892878,24.2275 h -5.48186 v 0.325526 h -5.156334 v -0.01302 h -4.882892 v 11.471541 h -1.210958 v 2.552125 h 1.210958 v 4.961019 h 4.882892 v -0.468758 h -0.677095 v -2.799525 h 0.677095 v -3.724019 h 9.700678 V 35.673 h 1.067726 v -3.35943 h -1.145852 v 0.846367 h -9.622552 v -3.73704 H 36.020549 V 24.553026 H 31.892878 Z M 17.413475,35.178199 h -0.338547 v -9.648594 h 0.338547 z M 52.244771,28.667677 H 50.968709 V 28.32913 h 0.781263 C 51.098919,27.951519 50.395783,27.756204 49.61452,27.756204 h -8.190237 c -1.080747,0 -2.018262,0.351568 -2.812546,1.067725 -0.794284,0.716158 -1.250021,1.61461 -1.393252,2.695357 h 0.572926 v 2.395872 h 0.455737 v 0.338547 h -0.455737 v 0.755221 h -0.598968 v 4.322987 c 0,0.664073 0.143231,1.289083 0.429694,1.862009 0.286463,0.572926 0.677095,1.067726 1.171894,1.458358 h 1.718778 v 0.338547 h -1.210957 c 0.638031,0.390631 1.354189,0.585947 2.122431,0.585947 h 2.955777 5.23446 c 1.093768,0 2.031283,-0.36459 2.812546,-1.080747 0.794284,-0.716158 1.263041,-1.61461 1.406273,-2.695356 H 53.247392 V 36.31103 h 0.611989 v -4.322987 c 0,-0.664073 -0.143232,-1.289083 -0.429695,-1.862009 -0.299484,-0.572926 -0.690115,-1.054705 -1.184915,-1.458357 z M 38.833095,39.04545 h -0.273442 v -8.020964 h 0.273442 z m 10.755383,-3.203177 h -0.4948 v 1.223978 h 0.468758 v 0.338547 h -0.468758 v 2.695357 c -0.02604,0 -0.09115,0 -0.182294,0 -0.09115,0 -0.195316,0.01302 -0.325526,0.01302 -0.11719,0 -0.221358,0 -0.325527,0 -0.09115,0 -0.156252,0 -0.169273,0 H 44.38006 v 0.325526 h -1.419294 c -0.416673,0 -0.768242,-0.143232 -1.067726,-0.442716 -0.286463,-0.286463 -0.429694,-0.638031 -0.429694,-1.054704 v -3.463598 h 0.4948 v -1.223979 h -0.260421 v -0.338547 h 0.260421 v -2.682335 c 0.02604,-0.01302 0.07813,-0.01302 0.182294,-0.01302 0.09115,0 0.195316,0 0.312505,0 0.11719,0 0.234379,0 0.325526,0 0.104169,-0.01302 0.156253,-0.01302 0.182295,-0.01302 h 3.710998 v -0.325526 h 1.419294 c 0.416673,0 0.768242,0.156252 1.054705,0.442715 0.299484,0.299484 0.442715,0.651052 0.442715,1.054705 z m 21.015968,2.61723 h 0.507821 l -0.911473,-1.575547 h -0.468758 l -0.01302,-0.02604 c 1.015641,-0.13021 1.848988,-0.559905 2.513062,-1.302104 0.677094,-0.7422 1.00262,-1.61461 1.00262,-2.630251 v -1.315126 c 0,-1.093768 -0.37761,-2.018262 -1.158873,-2.799525 -0.768242,-0.768241 -1.705757,-1.158873 -2.786504,-1.158873 H 55.031276 v 10.078289 h 0.820326 v 3.658914 h -0.820326 v 2.070346 h 4.11465 v -6.575628 h 6.47146 l 0.481778,0.859389 h -0.690115 l 1.87503,3.22922 h 0.585947 l 1.36721,2.487019 h 4.127672 l -0.885431,-1.601588 h 1.067725 V 40.751207 H 71.867487 Z M 56.033896,36.92302 h -0.286463 v -6.679797 h 0.286463 z m 13.112193,-4.322987 c 0,0.234378 -0.07813,0.442715 -0.260421,0.62501 -0.169274,0.169273 -0.37761,0.260421 -0.62501,0.260421 h -9.114732 v -1.692736 h 0.950536 v -0.924495 h 8.164196 c 0.2474,0 0.455736,0.09115 0.62501,0.260421 0.182295,0.182295 0.260421,0.390632 0.260421,0.625011 z m 5.599049,-1.093768 h 1.445336 v 3.48964 h -1.471378 v 4.322987 c 0,0.677094 0.143232,1.289083 0.429695,1.87503 0.299484,0.572926 0.690115,1.054705 1.184915,1.445336 h 14.726802 l 0.468758,0.351569 h -14.70076 c 0.651052,0.37761 1.354188,0.572926 2.135451,0.572926 H 92.492823 V 40.425681 H 80.487419 c -0.403652,0 -0.75522,-0.143232 -1.054704,-0.442716 -0.286463,-0.286463 -0.442716,-0.638031 -0.442716,-1.054704 v -3.463599 h 1.289084 v -4.257881 c 0.06511,0 0.143231,-0.01302 0.208336,-0.01302 H 92.492823 V 27.730162 H 78.963957 c -1.093768,0 -2.031283,0.364589 -2.812546,1.080746 -0.794284,0.716158 -1.263041,1.61461 -1.406273,2.695357 z m 26.628042,-4.309966 h -3.033907 v 0.559905 h -3.906314 v 7.968879 h -0.768241 v 3.750061 h 0.768241 v 4.062567 H 110.52697 V 40.035049 H 98.365315 v -0.75522 H 97.636137 V 36.988125 H 109.95405 V 33.576611 H 98.365315 v -2.460978 h 12.161655 v -3.359429 h -9.15379 z m 28.25567,6.84907 h -4.03653 v 1.184915 h 0.48178 v 3.359429 c 0,0.403653 -0.14323,0.7422 -0.42969,1.028663 -0.28647,0.286463 -0.62501,0.429694 -1.02867,0.429694 h -7.99492 v -8.958479 h 7.99492 c 0.026,0 0.0781,0 0.16928,0 0.0911,0 0.19531,0 0.3125,0 0.11719,0 0.22136,0 0.31251,0 0.10417,0.01302 0.15625,0.01302 0.18229,0.01302 v 2.61723 h 4.03653 v -2.330767 h 0.5599 c -0.13021,-1.054704 -0.58595,-1.927114 -1.35419,-2.61723 -0.76824,-0.690115 -1.67971,-1.041683 -2.73442,-1.041683 h -13.13823 -0.28646 v 9.284005 h -0.97658 v 2.057325 h 0.97658 v 4.023503 h 3.94537 9.47932 c 0.75522,0 1.44534,-0.195316 2.07035,-0.559905 h -11.54967 v -0.338547 h 12.03145 c 0.48178,-0.390631 0.85939,-0.859389 1.14585,-1.406273 0.27344,-0.559905 0.41667,-1.171894 0.41667,-1.822946 v -4.192777 h -0.58594 z m -16.10704,2.291704 h -0.27344 v -5.247482 h 0.27344 z"
       id="text1"
       style="font-size:26.6671px;font-family:'Glitch Inside';-inkscape-font-specification:'Glitch Inside';stroke-width:8.22666"
       aria-label="Forced" />
    <path
       d="m 31.892878,46.238483 h -5.48186 v 0.325526 h -5.156334 v -0.01302 H 16.371792 V 58.02253 h -1.210958 v 2.552125 h 1.210958 v 4.961018 h 4.882892 V 65.066914 H 20.577589 V 62.26739 h 0.677095 v -3.724019 h 9.700678 v -0.859389 h 1.067726 v -3.35943 H 30.877236 V 55.17092 H 21.254684 V 51.43388 H 36.020549 V 46.564009 H 31.892878 Z M 17.413475,57.189182 h -0.338547 v -9.648595 h 0.338547 z m 24.79207,-7.435017 h -3.190156 v 0.924494 h -0.781262 v 6.041765 h -1.041684 v 5.72926 h 1.041684 v 1.99222 h -0.859389 v 1.132831 h 10.026204 v -0.989599 h 0.520842 v 0.989599 h 6.562607 V 62.293432 H 42.205545 Z m -0.390631,7.044386 h -0.208337 v -6.22406 h 0.208337 z m 14.870036,2.526082 h -1.028663 v 2.122431 h 1.028663 v 4.153713 h 4.062566 v -3.919334 h -1.028663 v -2.291704 h 1.028663 V 49.754165 H 56.68495 Z m 0.585947,-8.737121 h 0.273442 v 8.047006 h -0.273442 z m 20.221683,9.882973 h 0.507821 L 77.088928,58.894939 H 76.62017 l -0.01302,-0.02604 c 1.015641,-0.130211 1.848988,-0.559905 2.513062,-1.302105 0.677094,-0.742199 1.00262,-1.614609 1.00262,-2.630251 v -1.315125 c 0,-1.093768 -0.37761,-2.018262 -1.158873,-2.799525 C 78.195717,50.053651 77.258202,49.66302 76.177455,49.66302 H 61.91941 v 10.078289 h 0.820326 v 3.658914 H 61.91941 v 2.070346 h 4.11465 v -6.575628 h 6.47146 l 0.481778,0.859389 h -0.690115 l 1.87503,3.229219 h 0.585947 l 1.36721,2.48702 h 4.127672 L 79.367611,63.86898 h 1.067725 V 62.762189 H 78.755621 Z M 62.92203,58.934002 h -0.286463 v -6.679796 h 0.286463 z m 13.112193,-4.322987 c 0,0.234379 -0.07813,0.442716 -0.260421,0.62501 -0.169274,0.169274 -0.37761,0.260421 -0.62501,0.260421 H 66.03406 V 53.80371 h 0.950536 v -0.924494 h 8.164196 c 0.2474,0 0.455736,0.09115 0.62501,0.260421 0.182295,0.182295 0.260421,0.390631 0.260421,0.62501 z m 5.573007,-4.869871 v 4.062566 h 3.906314 v -0.520842 h 2.291704 v 0.520842 h 0.182294 v 5.48186 h -1.00262 v 2.122431 h 1.00262 v 4.140692 h 4.062567 V 61.64238 h -1.028663 v -2.291704 h 1.028663 V 53.80371 H 97.4278 v -4.062566 h -9.440258 z m 12.929898,0.585947 h 2.057325 v 0.273442 h -2.057325 z m -5.963639,3.476619 h 0.286463 v 4.791745 h -0.286463 z m 25.963971,5.872492 -6.47146,-9.909016 v -0.05208 h -2.61723 v 0.05208 l -2.95578,4.518303 h -3.268284 l 0.807304,1.00262 h 1.80993 l -1.06773,1.627631 h -0.62501 l -4.101629,6.158955 h 0.703136 l -1.627631,2.487019 h 3.997461 l 2.148473,-2.877651 h -1.04168 l 3.81516,-5.755302 1.21096,-0.02604 1.49742,-2.291704 3.25526,5.065187 z m -3.94538,0.911473 0.0781,0.117189 h -0.83334 v 1.250021 h 1.64065 l 2.31775,3.606829 h 4.59642 l -3.25526,-4.974039 z m 4.19277,-10.846531 v 4.062566 h 3.90631 v -0.520842 h 2.29171 v 0.520842 h 0.18229 v 5.48186 h -1.00262 v 2.122431 h 1.00262 v 4.140692 h 4.06257 V 61.64238 h -1.02866 v -2.291704 h 1.02866 V 53.80371 h 5.37769 v -4.062566 h -9.44026 z m 12.9299,0.585947 h 2.05732 v 0.273442 h -2.05732 z m -5.96364,3.476619 h 0.28646 v 4.791745 h -0.28646 z m 11.05487,5.520923 h -1.02866 v 2.122431 h 1.02866 v 4.153713 h 4.06257 v -3.919334 h -1.02866 v -2.291704 h 1.02866 v -9.635574 h -4.06257 z m 0.58595,-8.737121 h 0.27344 v 8.047006 h -0.27344 z m 19.70084,0.09115 h -1.27606 v -0.338547 h 0.78126 c -0.65105,-0.37761 -1.35419,-0.572926 -2.13545,-0.572926 h -8.19024 c -1.08074,0 -2.01826,0.351568 -2.81254,1.067726 -0.79429,0.716157 -1.25002,1.614609 -1.39326,2.695356 h 0.57293 v 2.395873 h 0.45574 v 0.338547 h -0.45574 v 0.75522 h -0.59897 v 4.322987 c 0,0.664074 0.14323,1.289084 0.4297,1.86201 0.28646,0.572926 0.67709,1.067726 1.17189,1.458357 h 1.71878 v 0.338547 h -1.21096 c 0.63803,0.390632 1.35419,0.585947 2.12243,0.585947 h 2.95578 5.23446 c 1.09377,0 2.03128,-0.364589 2.81255,-1.080747 0.79428,-0.716157 1.26304,-1.614609 1.40627,-2.695356 h -0.58595 v -3.48964 h 0.61199 v -4.322987 c 0,-0.664073 -0.14323,-1.289084 -0.42969,-1.86201 -0.29949,-0.572926 -0.69012,-1.054704 -1.18492,-1.458357 z m -13.41168,10.377773 h -0.27344 v -8.020963 h 0.27344 z m 10.75539,-3.203177 h -0.4948 v 1.223979 h 0.46876 v 0.338547 h -0.46876 v 2.695356 c -0.026,0 -0.0911,0 -0.1823,0 -0.0911,0 -0.19531,0.01302 -0.32552,0.01302 -0.11719,0 -0.22136,0 -0.32553,0 -0.0911,0 -0.15625,0 -0.16927,0 h -3.711 v 0.325526 h -1.41929 c -0.41668,0 -0.76825,-0.143231 -1.06773,-0.442715 -0.28646,-0.286463 -0.42969,-0.638031 -0.42969,-1.054705 v -3.463598 h 0.4948 V 56.26469 h -0.26043 v -0.338547 h 0.26043 v -2.682336 c 0.026,-0.01302 0.0781,-0.01302 0.18229,-0.01302 0.0911,0 0.19532,0 0.3125,0 0.11719,0 0.23438,0 0.32553,0 0.10417,-0.01302 0.15625,-0.01302 0.1823,-0.01302 h 3.71099 v -0.325526 h 1.4193 c 0.41667,0 0.76824,0.156253 1.0547,0.442716 0.29949,0.299484 0.44272,0.651052 0.44272,1.054704 z m 10.52101,-7.213659 v -0.846368 h -4.06257 v 9.544426 h -1.01564 v 2.10941 h 1.01564 v 4.140692 h 4.06257 v -3.906313 h -1.02867 v -2.291704 h 1.02867 V 54.79331 l 1.25002,0.950536 h 5.45582 z m 12.70854,0.651052 h -1.27607 v 1.731799 h 1.27607 v 6.315207 h -1.01564 v 0.195316 l -4.33601,-3.307345 h -5.46884 l 4.5183,3.424535 h -0.72918 l 1.94014,1.432315 h 0.66407 l 4.42716,3.359429 v 1.145852 h 4.06256 v -3.906313 h -1.02866 v -2.291704 h 1.02866 v -9.596511 h -4.06256 z"
       id="text1-5"
       style="font-size:26.6671px;font-family:'Glitch Inside';-inkscape-font-specification:'Glitch Inside';stroke-width:8.22666"
       aria-label="Flirtation" />
  </g>
</svg>
